<mxfile host="app.diagrams.net" modified="2021-10-21T01:25:44.795Z" agent="5.0 (X11; Linux x86_64) AppleWebKit/537.36 (KHTML, like Gecko) Chrome/94.0.4606.81 Safari/537.36" etag="Xg9TAl_Gx3-a5bxq45Cp" version="15.5.4" type="github">
  <diagram id="C5RBs43oDa-KdzZeNtuy" name="Page-1">
    <mxGraphModel dx="1422" dy="773" grid="0" gridSize="10" guides="1" tooltips="1" connect="1" arrows="1" fold="1" page="0" pageScale="1" pageWidth="827" pageHeight="1169" math="0" shadow="0">
      <root>
        <mxCell id="WIyWlLk6GJQsqaUBKTNV-0" />
        <mxCell id="WIyWlLk6GJQsqaUBKTNV-1" parent="WIyWlLk6GJQsqaUBKTNV-0" />
        <mxCell id="jTqWQ6nL_YxyMk8PwgOi-0" value="Usuario" style="swimlane;fontStyle=1;align=center;verticalAlign=top;childLayout=stackLayout;horizontal=1;startSize=26;horizontalStack=0;resizeParent=1;resizeParentMax=0;resizeLast=0;collapsible=1;marginBottom=0;" parent="WIyWlLk6GJQsqaUBKTNV-1" vertex="1">
          <mxGeometry x="315" y="40" width="160" height="242" as="geometry" />
        </mxCell>
        <mxCell id="jTqWQ6nL_YxyMk8PwgOi-64" value="- id : Integer" style="text;strokeColor=none;fillColor=none;align=left;verticalAlign=top;spacingLeft=4;spacingRight=4;overflow=hidden;rotatable=0;points=[[0,0.5],[1,0.5]];portConstraint=eastwest;" parent="jTqWQ6nL_YxyMk8PwgOi-0" vertex="1">
          <mxGeometry y="26" width="160" height="26" as="geometry" />
        </mxCell>
        <mxCell id="FbY51v_w4OEhdyAeZAFu-1" value="- nome: String" style="text;strokeColor=none;fillColor=none;align=left;verticalAlign=top;spacingLeft=4;spacingRight=4;overflow=hidden;rotatable=0;points=[[0,0.5],[1,0.5]];portConstraint=eastwest;" parent="jTqWQ6nL_YxyMk8PwgOi-0" vertex="1">
          <mxGeometry y="52" width="160" height="26" as="geometry" />
        </mxCell>
        <mxCell id="jTqWQ6nL_YxyMk8PwgOi-1" value="- cpf: String" style="text;strokeColor=none;fillColor=none;align=left;verticalAlign=top;spacingLeft=4;spacingRight=4;overflow=hidden;rotatable=0;points=[[0,0.5],[1,0.5]];portConstraint=eastwest;" parent="jTqWQ6nL_YxyMk8PwgOi-0" vertex="1">
          <mxGeometry y="78" width="160" height="26" as="geometry" />
        </mxCell>
        <mxCell id="FbY51v_w4OEhdyAeZAFu-9" value="- telefone: String" style="text;strokeColor=none;fillColor=none;align=left;verticalAlign=top;spacingLeft=4;spacingRight=4;overflow=hidden;rotatable=0;points=[[0,0.5],[1,0.5]];portConstraint=eastwest;" parent="jTqWQ6nL_YxyMk8PwgOi-0" vertex="1">
          <mxGeometry y="104" width="160" height="26" as="geometry" />
        </mxCell>
        <mxCell id="FbY51v_w4OEhdyAeZAFu-2" value="- dataNascimento: Date" style="text;strokeColor=none;fillColor=none;align=left;verticalAlign=top;spacingLeft=4;spacingRight=4;overflow=hidden;rotatable=0;points=[[0,0.5],[1,0.5]];portConstraint=eastwest;" parent="jTqWQ6nL_YxyMk8PwgOi-0" vertex="1">
          <mxGeometry y="130" width="160" height="26" as="geometry" />
        </mxCell>
        <mxCell id="jTqWQ6nL_YxyMk8PwgOi-60" value="- email: string" style="text;strokeColor=none;fillColor=none;align=left;verticalAlign=top;spacingLeft=4;spacingRight=4;overflow=hidden;rotatable=0;points=[[0,0.5],[1,0.5]];portConstraint=eastwest;" parent="jTqWQ6nL_YxyMk8PwgOi-0" vertex="1">
          <mxGeometry y="156" width="160" height="26" as="geometry" />
        </mxCell>
        <mxCell id="jTqWQ6nL_YxyMk8PwgOi-63" value="- senha: string" style="text;strokeColor=none;fillColor=none;align=left;verticalAlign=top;spacingLeft=4;spacingRight=4;overflow=hidden;rotatable=0;points=[[0,0.5],[1,0.5]];portConstraint=eastwest;" parent="jTqWQ6nL_YxyMk8PwgOi-0" vertex="1">
          <mxGeometry y="182" width="160" height="26" as="geometry" />
        </mxCell>
        <mxCell id="jTqWQ6nL_YxyMk8PwgOi-2" value="" style="line;strokeWidth=1;fillColor=none;align=left;verticalAlign=middle;spacingTop=-1;spacingLeft=3;spacingRight=3;rotatable=0;labelPosition=right;points=[];portConstraint=eastwest;" parent="jTqWQ6nL_YxyMk8PwgOi-0" vertex="1">
          <mxGeometry y="208" width="160" height="8" as="geometry" />
        </mxCell>
        <mxCell id="jTqWQ6nL_YxyMk8PwgOi-3" value="+ receiveAvaliation(): void" style="text;strokeColor=none;fillColor=none;align=left;verticalAlign=top;spacingLeft=4;spacingRight=4;overflow=hidden;rotatable=0;points=[[0,0.5],[1,0.5]];portConstraint=eastwest;" parent="jTqWQ6nL_YxyMk8PwgOi-0" vertex="1">
          <mxGeometry y="216" width="160" height="26" as="geometry" />
        </mxCell>
        <mxCell id="jTqWQ6nL_YxyMk8PwgOi-25" style="edgeStyle=orthogonalEdgeStyle;rounded=0;orthogonalLoop=1;jettySize=auto;html=1;endArrow=block;endFill=0;exitX=0.5;exitY=0;exitDx=0;exitDy=0;" parent="WIyWlLk6GJQsqaUBKTNV-1" source="jTqWQ6nL_YxyMk8PwgOi-4" edge="1">
          <mxGeometry relative="1" as="geometry">
            <mxPoint x="315" y="231" as="targetPoint" />
            <Array as="points">
              <mxPoint x="150" y="231" />
              <mxPoint x="315" y="231" />
            </Array>
          </mxGeometry>
        </mxCell>
        <mxCell id="jTqWQ6nL_YxyMk8PwgOi-4" value="Contratada" style="swimlane;fontStyle=1;align=center;verticalAlign=top;childLayout=stackLayout;horizontal=1;startSize=26;horizontalStack=0;resizeParent=1;resizeParentMax=0;resizeLast=0;collapsible=1;marginBottom=0;" parent="WIyWlLk6GJQsqaUBKTNV-1" vertex="1">
          <mxGeometry x="72" y="293" width="160" height="190" as="geometry" />
        </mxCell>
        <mxCell id="cCMgAs6MfNDrayGKKW0t-0" value="- latitude: Double" style="text;strokeColor=none;fillColor=none;align=left;verticalAlign=top;spacingLeft=4;spacingRight=4;overflow=hidden;rotatable=0;points=[[0,0.5],[1,0.5]];portConstraint=eastwest;" parent="jTqWQ6nL_YxyMk8PwgOi-4" vertex="1">
          <mxGeometry y="26" width="160" height="26" as="geometry" />
        </mxCell>
        <mxCell id="cCMgAs6MfNDrayGKKW0t-1" value="- longitude: Double" style="text;strokeColor=none;fillColor=none;align=left;verticalAlign=top;spacingLeft=4;spacingRight=4;overflow=hidden;rotatable=0;points=[[0,0.5],[1,0.5]];portConstraint=eastwest;" parent="jTqWQ6nL_YxyMk8PwgOi-4" vertex="1">
          <mxGeometry y="52" width="160" height="26" as="geometry" />
        </mxCell>
        <mxCell id="cCMgAs6MfNDrayGKKW0t-2" value="- cep: String" style="text;strokeColor=none;fillColor=none;align=left;verticalAlign=top;spacingLeft=4;spacingRight=4;overflow=hidden;rotatable=0;points=[[0,0.5],[1,0.5]];portConstraint=eastwest;" parent="jTqWQ6nL_YxyMk8PwgOi-4" vertex="1">
          <mxGeometry y="78" width="160" height="26" as="geometry" />
        </mxCell>
        <mxCell id="cCMgAs6MfNDrayGKKW0t-3" value="- complemento: String" style="text;strokeColor=none;fillColor=none;align=left;verticalAlign=top;spacingLeft=4;spacingRight=4;overflow=hidden;rotatable=0;points=[[0,0.5],[1,0.5]];portConstraint=eastwest;" parent="jTqWQ6nL_YxyMk8PwgOi-4" vertex="1">
          <mxGeometry y="104" width="160" height="26" as="geometry" />
        </mxCell>
        <mxCell id="cCMgAs6MfNDrayGKKW0t-4" value="- numero: String" style="text;strokeColor=none;fillColor=none;align=left;verticalAlign=top;spacingLeft=4;spacingRight=4;overflow=hidden;rotatable=0;points=[[0,0.5],[1,0.5]];portConstraint=eastwest;" parent="jTqWQ6nL_YxyMk8PwgOi-4" vertex="1">
          <mxGeometry y="130" width="160" height="26" as="geometry" />
        </mxCell>
        <mxCell id="jTqWQ6nL_YxyMk8PwgOi-6" value="" style="line;strokeWidth=1;fillColor=none;align=left;verticalAlign=middle;spacingTop=-1;spacingLeft=3;spacingRight=3;rotatable=0;labelPosition=right;points=[];portConstraint=eastwest;" parent="jTqWQ6nL_YxyMk8PwgOi-4" vertex="1">
          <mxGeometry y="156" width="160" height="8" as="geometry" />
        </mxCell>
        <mxCell id="jTqWQ6nL_YxyMk8PwgOi-7" value="+ listJobs(): Jobs[]" style="text;strokeColor=none;fillColor=none;align=left;verticalAlign=top;spacingLeft=4;spacingRight=4;overflow=hidden;rotatable=0;points=[[0,0.5],[1,0.5]];portConstraint=eastwest;" parent="jTqWQ6nL_YxyMk8PwgOi-4" vertex="1">
          <mxGeometry y="164" width="160" height="26" as="geometry" />
        </mxCell>
        <mxCell id="jTqWQ6nL_YxyMk8PwgOi-26" style="edgeStyle=orthogonalEdgeStyle;rounded=0;orthogonalLoop=1;jettySize=auto;html=1;entryX=1;entryY=0.5;entryDx=0;entryDy=0;endArrow=block;endFill=0;exitX=0.5;exitY=0;exitDx=0;exitDy=0;" parent="WIyWlLk6GJQsqaUBKTNV-1" source="jTqWQ6nL_YxyMk8PwgOi-8" target="jTqWQ6nL_YxyMk8PwgOi-60" edge="1">
          <mxGeometry relative="1" as="geometry">
            <Array as="points">
              <mxPoint x="631" y="209" />
            </Array>
          </mxGeometry>
        </mxCell>
        <mxCell id="jTqWQ6nL_YxyMk8PwgOi-8" value="Proprietaria" style="swimlane;fontStyle=1;align=center;verticalAlign=top;childLayout=stackLayout;horizontal=1;startSize=26;horizontalStack=0;resizeParent=1;resizeParentMax=0;resizeLast=0;collapsible=1;marginBottom=0;" parent="WIyWlLk6GJQsqaUBKTNV-1" vertex="1">
          <mxGeometry x="524" y="258" width="160" height="86" as="geometry" />
        </mxCell>
        <mxCell id="jTqWQ6nL_YxyMk8PwgOi-10" value="" style="line;strokeWidth=1;fillColor=none;align=left;verticalAlign=middle;spacingTop=-1;spacingLeft=3;spacingRight=3;rotatable=0;labelPosition=right;points=[];portConstraint=eastwest;" parent="jTqWQ6nL_YxyMk8PwgOi-8" vertex="1">
          <mxGeometry y="26" width="160" height="8" as="geometry" />
        </mxCell>
        <mxCell id="jTqWQ6nL_YxyMk8PwgOi-11" value="+ createLocality(): void" style="text;strokeColor=none;fillColor=none;align=left;verticalAlign=top;spacingLeft=4;spacingRight=4;overflow=hidden;rotatable=0;points=[[0,0.5],[1,0.5]];portConstraint=eastwest;" parent="jTqWQ6nL_YxyMk8PwgOi-8" vertex="1">
          <mxGeometry y="34" width="160" height="26" as="geometry" />
        </mxCell>
        <mxCell id="jW4PajFgoKis5OPFGoFI-0" value="+ inviteService(): void" style="text;strokeColor=none;fillColor=none;align=left;verticalAlign=top;spacingLeft=4;spacingRight=4;overflow=hidden;rotatable=0;points=[[0,0.5],[1,0.5]];portConstraint=eastwest;" parent="jTqWQ6nL_YxyMk8PwgOi-8" vertex="1">
          <mxGeometry y="60" width="160" height="26" as="geometry" />
        </mxCell>
        <mxCell id="jTqWQ6nL_YxyMk8PwgOi-16" value="Trabalho" style="swimlane;fontStyle=1;align=center;verticalAlign=top;childLayout=stackLayout;horizontal=1;startSize=26;horizontalStack=0;resizeParent=1;resizeParentMax=0;resizeLast=0;collapsible=1;marginBottom=0;" parent="WIyWlLk6GJQsqaUBKTNV-1" vertex="1">
          <mxGeometry x="826" y="382" width="170" height="86" as="geometry" />
        </mxCell>
        <mxCell id="jTqWQ6nL_YxyMk8PwgOi-17" value="- preco: Double" style="text;strokeColor=none;fillColor=none;align=left;verticalAlign=top;spacingLeft=4;spacingRight=4;overflow=hidden;rotatable=0;points=[[0,0.5],[1,0.5]];portConstraint=eastwest;" parent="jTqWQ6nL_YxyMk8PwgOi-16" vertex="1">
          <mxGeometry y="26" width="170" height="26" as="geometry" />
        </mxCell>
        <mxCell id="jTqWQ6nL_YxyMk8PwgOi-18" value="" style="line;strokeWidth=1;fillColor=none;align=left;verticalAlign=middle;spacingTop=-1;spacingLeft=3;spacingRight=3;rotatable=0;labelPosition=right;points=[];portConstraint=eastwest;" parent="jTqWQ6nL_YxyMk8PwgOi-16" vertex="1">
          <mxGeometry y="52" width="170" height="8" as="geometry" />
        </mxCell>
        <mxCell id="jTqWQ6nL_YxyMk8PwgOi-19" value="+ candidateAnWorker(): void" style="text;strokeColor=none;fillColor=none;align=left;verticalAlign=top;spacingLeft=4;spacingRight=4;overflow=hidden;rotatable=0;points=[[0,0.5],[1,0.5]];portConstraint=eastwest;" parent="jTqWQ6nL_YxyMk8PwgOi-16" vertex="1">
          <mxGeometry y="60" width="170" height="26" as="geometry" />
        </mxCell>
        <mxCell id="jTqWQ6nL_YxyMk8PwgOi-40" value="Avaliacao" style="swimlane;fontStyle=1;align=center;verticalAlign=top;childLayout=stackLayout;horizontal=1;startSize=26;horizontalStack=0;resizeParent=1;resizeParentMax=0;resizeLast=0;collapsible=1;marginBottom=0;" parent="WIyWlLk6GJQsqaUBKTNV-1" vertex="1">
          <mxGeometry x="580" y="87" width="160" height="86" as="geometry" />
        </mxCell>
        <mxCell id="jTqWQ6nL_YxyMk8PwgOi-41" value="- estrelas: Integer" style="text;strokeColor=none;fillColor=none;align=left;verticalAlign=top;spacingLeft=4;spacingRight=4;overflow=hidden;rotatable=0;points=[[0,0.5],[1,0.5]];portConstraint=eastwest;" parent="jTqWQ6nL_YxyMk8PwgOi-40" vertex="1">
          <mxGeometry y="26" width="160" height="26" as="geometry" />
        </mxCell>
        <mxCell id="jTqWQ6nL_YxyMk8PwgOi-42" value="" style="line;strokeWidth=1;fillColor=none;align=left;verticalAlign=middle;spacingTop=-1;spacingLeft=3;spacingRight=3;rotatable=0;labelPosition=right;points=[];portConstraint=eastwest;" parent="jTqWQ6nL_YxyMk8PwgOi-40" vertex="1">
          <mxGeometry y="52" width="160" height="8" as="geometry" />
        </mxCell>
        <mxCell id="jTqWQ6nL_YxyMk8PwgOi-43" value="+ addComentario(): void" style="text;strokeColor=none;fillColor=none;align=left;verticalAlign=top;spacingLeft=4;spacingRight=4;overflow=hidden;rotatable=0;points=[[0,0.5],[1,0.5]];portConstraint=eastwest;" parent="jTqWQ6nL_YxyMk8PwgOi-40" vertex="1">
          <mxGeometry y="60" width="160" height="26" as="geometry" />
        </mxCell>
        <mxCell id="jTqWQ6nL_YxyMk8PwgOi-50" value="" style="endArrow=diamondThin;endFill=0;endSize=24;html=1;exitX=0;exitY=0.923;exitDx=0;exitDy=0;exitPerimeter=0;" parent="WIyWlLk6GJQsqaUBKTNV-1" source="jTqWQ6nL_YxyMk8PwgOi-41" edge="1">
          <mxGeometry width="160" relative="1" as="geometry">
            <mxPoint x="571" y="136" as="sourcePoint" />
            <mxPoint x="475" y="136" as="targetPoint" />
          </mxGeometry>
        </mxCell>
        <mxCell id="jTqWQ6nL_YxyMk8PwgOi-51" value="1" style="text;html=1;align=center;verticalAlign=middle;resizable=0;points=[];autosize=1;strokeColor=none;" parent="WIyWlLk6GJQsqaUBKTNV-1" vertex="1">
          <mxGeometry x="496" y="120" width="20" height="20" as="geometry" />
        </mxCell>
        <mxCell id="jTqWQ6nL_YxyMk8PwgOi-52" value="1..*" style="text;html=1;align=center;verticalAlign=middle;resizable=0;points=[];autosize=1;strokeColor=none;" parent="WIyWlLk6GJQsqaUBKTNV-1" vertex="1">
          <mxGeometry x="552" y="120" width="30" height="20" as="geometry" />
        </mxCell>
        <mxCell id="jTqWQ6nL_YxyMk8PwgOi-66" value="Comentario" style="swimlane;fontStyle=1;align=center;verticalAlign=top;childLayout=stackLayout;horizontal=1;startSize=26;horizontalStack=0;resizeParent=1;resizeParentMax=0;resizeLast=0;collapsible=1;marginBottom=0;" parent="WIyWlLk6GJQsqaUBKTNV-1" vertex="1">
          <mxGeometry x="831" y="87" width="160" height="86" as="geometry" />
        </mxCell>
        <mxCell id="jTqWQ6nL_YxyMk8PwgOi-73" value="- tipo: String" style="text;strokeColor=none;fillColor=none;align=left;verticalAlign=top;spacingLeft=4;spacingRight=4;overflow=hidden;rotatable=0;points=[[0,0.5],[1,0.5]];portConstraint=eastwest;" parent="jTqWQ6nL_YxyMk8PwgOi-66" vertex="1">
          <mxGeometry y="26" width="160" height="26" as="geometry" />
        </mxCell>
        <mxCell id="jTqWQ6nL_YxyMk8PwgOi-67" value="- texto: String" style="text;strokeColor=none;fillColor=none;align=left;verticalAlign=top;spacingLeft=4;spacingRight=4;overflow=hidden;rotatable=0;points=[[0,0.5],[1,0.5]];portConstraint=eastwest;" parent="jTqWQ6nL_YxyMk8PwgOi-66" vertex="1">
          <mxGeometry y="52" width="160" height="26" as="geometry" />
        </mxCell>
        <mxCell id="jTqWQ6nL_YxyMk8PwgOi-68" value="" style="line;strokeWidth=1;fillColor=none;align=left;verticalAlign=middle;spacingTop=-1;spacingLeft=3;spacingRight=3;rotatable=0;labelPosition=right;points=[];portConstraint=eastwest;" parent="jTqWQ6nL_YxyMk8PwgOi-66" vertex="1">
          <mxGeometry y="78" width="160" height="8" as="geometry" />
        </mxCell>
        <mxCell id="jTqWQ6nL_YxyMk8PwgOi-70" value="" style="endArrow=diamondThin;endFill=0;endSize=24;html=1;entryX=1;entryY=0.5;entryDx=0;entryDy=0;exitX=0;exitY=0.5;exitDx=0;exitDy=0;" parent="WIyWlLk6GJQsqaUBKTNV-1" source="jTqWQ6nL_YxyMk8PwgOi-73" target="jTqWQ6nL_YxyMk8PwgOi-41" edge="1">
          <mxGeometry width="160" relative="1" as="geometry">
            <mxPoint x="818" y="148" as="sourcePoint" />
            <mxPoint x="455" y="116" as="targetPoint" />
          </mxGeometry>
        </mxCell>
        <mxCell id="jTqWQ6nL_YxyMk8PwgOi-71" value="1" style="text;html=1;align=center;verticalAlign=middle;resizable=0;points=[];autosize=1;strokeColor=none;" parent="WIyWlLk6GJQsqaUBKTNV-1" vertex="1">
          <mxGeometry x="767" y="110" width="20" height="20" as="geometry" />
        </mxCell>
        <mxCell id="jTqWQ6nL_YxyMk8PwgOi-72" value="1..*" style="text;html=1;align=center;verticalAlign=middle;resizable=0;points=[];autosize=1;strokeColor=none;" parent="WIyWlLk6GJQsqaUBKTNV-1" vertex="1">
          <mxGeometry x="805" y="110" width="30" height="20" as="geometry" />
        </mxCell>
        <mxCell id="jTqWQ6nL_YxyMk8PwgOi-76" value="Localizacao" style="swimlane;fontStyle=1;align=center;verticalAlign=top;childLayout=stackLayout;horizontal=1;startSize=26;horizontalStack=0;resizeParent=1;resizeParentMax=0;resizeLast=0;collapsible=1;marginBottom=0;" parent="WIyWlLk6GJQsqaUBKTNV-1" vertex="1">
          <mxGeometry x="831" y="205" width="160" height="138" as="geometry" />
        </mxCell>
        <mxCell id="jTqWQ6nL_YxyMk8PwgOi-77" value="- specification: String" style="text;strokeColor=none;fillColor=none;align=left;verticalAlign=top;spacingLeft=4;spacingRight=4;overflow=hidden;rotatable=0;points=[[0,0.5],[1,0.5]];portConstraint=eastwest;" parent="jTqWQ6nL_YxyMk8PwgOi-76" vertex="1">
          <mxGeometry y="26" width="160" height="26" as="geometry" />
        </mxCell>
        <mxCell id="jTqWQ6nL_YxyMk8PwgOi-78" value="" style="line;strokeWidth=1;fillColor=none;align=left;verticalAlign=middle;spacingTop=-1;spacingLeft=3;spacingRight=3;rotatable=0;labelPosition=right;points=[];portConstraint=eastwest;" parent="jTqWQ6nL_YxyMk8PwgOi-76" vertex="1">
          <mxGeometry y="52" width="160" height="8" as="geometry" />
        </mxCell>
        <mxCell id="jTqWQ6nL_YxyMk8PwgOi-94" value="+ createJob(): void" style="text;strokeColor=none;fillColor=none;align=left;verticalAlign=top;spacingLeft=4;spacingRight=4;overflow=hidden;rotatable=0;points=[[0,0.5],[1,0.5]];portConstraint=eastwest;" parent="jTqWQ6nL_YxyMk8PwgOi-76" vertex="1">
          <mxGeometry y="60" width="160" height="26" as="geometry" />
        </mxCell>
        <mxCell id="jTqWQ6nL_YxyMk8PwgOi-79" value="+ listJobs(): Jobs[]" style="text;strokeColor=none;fillColor=none;align=left;verticalAlign=top;spacingLeft=4;spacingRight=4;overflow=hidden;rotatable=0;points=[[0,0.5],[1,0.5]];portConstraint=eastwest;" parent="jTqWQ6nL_YxyMk8PwgOi-76" vertex="1">
          <mxGeometry y="86" width="160" height="26" as="geometry" />
        </mxCell>
        <mxCell id="jTqWQ6nL_YxyMk8PwgOi-95" value="+ deleteJob(): void" style="text;strokeColor=none;fillColor=none;align=left;verticalAlign=top;spacingLeft=4;spacingRight=4;overflow=hidden;rotatable=0;points=[[0,0.5],[1,0.5]];portConstraint=eastwest;" parent="jTqWQ6nL_YxyMk8PwgOi-76" vertex="1">
          <mxGeometry y="112" width="160" height="26" as="geometry" />
        </mxCell>
        <mxCell id="jTqWQ6nL_YxyMk8PwgOi-80" value="" style="endArrow=diamondThin;endFill=0;endSize=24;html=1;entryX=0.994;entryY=0.154;entryDx=0;entryDy=0;entryPerimeter=0;" parent="WIyWlLk6GJQsqaUBKTNV-1" edge="1" target="jTqWQ6nL_YxyMk8PwgOi-11">
          <mxGeometry width="160" relative="1" as="geometry">
            <mxPoint x="838" y="296" as="sourcePoint" />
            <mxPoint x="610" y="296" as="targetPoint" />
          </mxGeometry>
        </mxCell>
        <mxCell id="jTqWQ6nL_YxyMk8PwgOi-81" value="" style="endArrow=diamondThin;endFill=0;endSize=24;html=1;exitX=0.5;exitY=0;exitDx=0;exitDy=0;" parent="WIyWlLk6GJQsqaUBKTNV-1" source="jTqWQ6nL_YxyMk8PwgOi-16" edge="1">
          <mxGeometry width="160" relative="1" as="geometry">
            <mxPoint x="841" y="202" as="sourcePoint" />
            <mxPoint x="911" y="343" as="targetPoint" />
          </mxGeometry>
        </mxCell>
        <mxCell id="jTqWQ6nL_YxyMk8PwgOi-83" value="1" style="text;html=1;align=center;verticalAlign=middle;resizable=0;points=[];autosize=1;strokeColor=none;" parent="WIyWlLk6GJQsqaUBKTNV-1" vertex="1">
          <mxGeometry x="709" y="279" width="20" height="20" as="geometry" />
        </mxCell>
        <mxCell id="jTqWQ6nL_YxyMk8PwgOi-84" value="1..*" style="text;html=1;align=center;verticalAlign=middle;resizable=0;points=[];autosize=1;strokeColor=none;" parent="WIyWlLk6GJQsqaUBKTNV-1" vertex="1">
          <mxGeometry x="803" y="279" width="30" height="20" as="geometry" />
        </mxCell>
        <mxCell id="jTqWQ6nL_YxyMk8PwgOi-85" value="1" style="text;html=1;align=center;verticalAlign=middle;resizable=0;points=[];autosize=1;strokeColor=none;" parent="WIyWlLk6GJQsqaUBKTNV-1" vertex="1">
          <mxGeometry x="921" y="299" width="20" height="20" as="geometry" />
        </mxCell>
        <mxCell id="jTqWQ6nL_YxyMk8PwgOi-86" value="1..*" style="text;html=1;align=center;verticalAlign=middle;resizable=0;points=[];autosize=1;strokeColor=none;" parent="WIyWlLk6GJQsqaUBKTNV-1" vertex="1">
          <mxGeometry x="914" y="365" width="30" height="20" as="geometry" />
        </mxCell>
        <mxCell id="jTqWQ6nL_YxyMk8PwgOi-101" value="1..*" style="text;html=1;align=center;verticalAlign=middle;resizable=0;points=[];autosize=1;strokeColor=none;" parent="WIyWlLk6GJQsqaUBKTNV-1" vertex="1">
          <mxGeometry x="796" y="431" width="30" height="20" as="geometry" />
        </mxCell>
        <mxCell id="jTqWQ6nL_YxyMk8PwgOi-103" value="1..*" style="text;html=1;align=center;verticalAlign=middle;resizable=0;points=[];autosize=1;strokeColor=none;" parent="WIyWlLk6GJQsqaUBKTNV-1" vertex="1">
          <mxGeometry x="149" y="276" width="30" height="20" as="geometry" />
        </mxCell>
        <mxCell id="FbY51v_w4OEhdyAeZAFu-0" value="" style="endArrow=none;html=1;" parent="WIyWlLk6GJQsqaUBKTNV-1" edge="1">
          <mxGeometry width="50" height="50" relative="1" as="geometry">
            <mxPoint x="233" y="448" as="sourcePoint" />
            <mxPoint x="826" y="448" as="targetPoint" />
          </mxGeometry>
        </mxCell>
        <mxCell id="jW4PajFgoKis5OPFGoFI-1" value="Logs" style="swimlane;fontStyle=1;align=center;verticalAlign=top;childLayout=stackLayout;horizontal=1;startSize=26;horizontalStack=0;resizeParent=1;resizeParentMax=0;resizeLast=0;collapsible=1;marginBottom=0;" parent="WIyWlLk6GJQsqaUBKTNV-1" vertex="1">
          <mxGeometry x="76" y="136" width="160" height="86" as="geometry" />
        </mxCell>
        <mxCell id="jW4PajFgoKis5OPFGoFI-2" value="" style="line;strokeWidth=1;fillColor=none;align=left;verticalAlign=middle;spacingTop=-1;spacingLeft=3;spacingRight=3;rotatable=0;labelPosition=right;points=[];portConstraint=eastwest;" parent="jW4PajFgoKis5OPFGoFI-1" vertex="1">
          <mxGeometry y="26" width="160" height="8" as="geometry" />
        </mxCell>
        <mxCell id="jW4PajFgoKis5OPFGoFI-4" value="- exceptions : String" style="text;strokeColor=none;fillColor=none;align=left;verticalAlign=top;spacingLeft=4;spacingRight=4;overflow=hidden;rotatable=0;points=[[0,0.5],[1,0.5]];portConstraint=eastwest;" parent="jW4PajFgoKis5OPFGoFI-1" vertex="1">
          <mxGeometry y="34" width="160" height="26" as="geometry" />
        </mxCell>
        <mxCell id="jW4PajFgoKis5OPFGoFI-9" value="- dateTime: Date" style="text;strokeColor=none;fillColor=none;align=left;verticalAlign=top;spacingLeft=4;spacingRight=4;overflow=hidden;rotatable=0;points=[[0,0.5],[1,0.5]];portConstraint=eastwest;" parent="jW4PajFgoKis5OPFGoFI-1" vertex="1">
          <mxGeometry y="60" width="160" height="26" as="geometry" />
        </mxCell>
        <mxCell id="jW4PajFgoKis5OPFGoFI-11" value="listObject" style="swimlane;fontStyle=1;align=center;verticalAlign=top;childLayout=stackLayout;horizontal=1;startSize=26;horizontalStack=0;resizeParent=1;resizeParentMax=0;resizeLast=0;collapsible=1;marginBottom=0;" parent="WIyWlLk6GJQsqaUBKTNV-1" vertex="1">
          <mxGeometry x="76" y="40" width="160" height="86" as="geometry" />
        </mxCell>
        <mxCell id="jW4PajFgoKis5OPFGoFI-12" value="" style="line;strokeWidth=1;fillColor=none;align=left;verticalAlign=middle;spacingTop=-1;spacingLeft=3;spacingRight=3;rotatable=0;labelPosition=right;points=[];portConstraint=eastwest;" parent="jW4PajFgoKis5OPFGoFI-11" vertex="1">
          <mxGeometry y="26" width="160" height="8" as="geometry" />
        </mxCell>
        <mxCell id="jW4PajFgoKis5OPFGoFI-13" value="- vetor : Vetor" style="text;strokeColor=none;fillColor=none;align=left;verticalAlign=top;spacingLeft=4;spacingRight=4;overflow=hidden;rotatable=0;points=[[0,0.5],[1,0.5]];portConstraint=eastwest;" parent="jW4PajFgoKis5OPFGoFI-11" vertex="1">
          <mxGeometry y="34" width="160" height="26" as="geometry" />
        </mxCell>
        <mxCell id="jW4PajFgoKis5OPFGoFI-14" value="- nroElem: Integer" style="text;strokeColor=none;fillColor=none;align=left;verticalAlign=top;spacingLeft=4;spacingRight=4;overflow=hidden;rotatable=0;points=[[0,0.5],[1,0.5]];portConstraint=eastwest;" parent="jW4PajFgoKis5OPFGoFI-11" vertex="1">
          <mxGeometry y="60" width="160" height="26" as="geometry" />
        </mxCell>
        <mxCell id="g8Wk1OXir1tEvoCu7UKD-1" value="Notificacao" style="swimlane;fontStyle=1;align=center;verticalAlign=top;childLayout=stackLayout;horizontal=1;startSize=26;horizontalStack=0;resizeParent=1;resizeParentMax=0;resizeLast=0;collapsible=1;marginBottom=0;" vertex="1" parent="WIyWlLk6GJQsqaUBKTNV-1">
          <mxGeometry x="323" y="330" width="160" height="60" as="geometry" />
        </mxCell>
        <mxCell id="g8Wk1OXir1tEvoCu7UKD-2" value="" style="line;strokeWidth=1;fillColor=none;align=left;verticalAlign=middle;spacingTop=-1;spacingLeft=3;spacingRight=3;rotatable=0;labelPosition=right;points=[];portConstraint=eastwest;" vertex="1" parent="g8Wk1OXir1tEvoCu7UKD-1">
          <mxGeometry y="26" width="160" height="8" as="geometry" />
        </mxCell>
        <mxCell id="g8Wk1OXir1tEvoCu7UKD-4" value="+ notify(): void" style="text;strokeColor=none;fillColor=none;align=left;verticalAlign=top;spacingLeft=4;spacingRight=4;overflow=hidden;rotatable=0;points=[[0,0.5],[1,0.5]];portConstraint=eastwest;" vertex="1" parent="g8Wk1OXir1tEvoCu7UKD-1">
          <mxGeometry y="34" width="160" height="26" as="geometry" />
        </mxCell>
        <mxCell id="g8Wk1OXir1tEvoCu7UKD-8" value="" style="endArrow=none;html=1;exitX=0.481;exitY=1.038;exitDx=0;exitDy=0;exitPerimeter=0;" edge="1" parent="WIyWlLk6GJQsqaUBKTNV-1" source="g8Wk1OXir1tEvoCu7UKD-4">
          <mxGeometry width="50" height="50" relative="1" as="geometry">
            <mxPoint x="250.96000000000004" y="373.99800000000005" as="sourcePoint" />
            <mxPoint x="400" y="410" as="targetPoint" />
          </mxGeometry>
        </mxCell>
        <mxCell id="g8Wk1OXir1tEvoCu7UKD-9" value="" style="endArrow=none;html=1;entryX=0.506;entryY=0.962;entryDx=0;entryDy=0;entryPerimeter=0;" edge="1" parent="WIyWlLk6GJQsqaUBKTNV-1" target="jW4PajFgoKis5OPFGoFI-0">
          <mxGeometry width="50" height="50" relative="1" as="geometry">
            <mxPoint x="605" y="409" as="sourcePoint" />
            <mxPoint x="380" y="420" as="targetPoint" />
          </mxGeometry>
        </mxCell>
        <mxCell id="g8Wk1OXir1tEvoCu7UKD-10" value="" style="endArrow=none;html=1;entryX=1;entryY=0.5;entryDx=0;entryDy=0;" edge="1" parent="WIyWlLk6GJQsqaUBKTNV-1">
          <mxGeometry width="50" height="50" relative="1" as="geometry">
            <mxPoint x="605" y="410" as="sourcePoint" />
            <mxPoint x="233" y="410" as="targetPoint" />
          </mxGeometry>
        </mxCell>
        <mxCell id="g8Wk1OXir1tEvoCu7UKD-11" value="1" style="text;html=1;align=center;verticalAlign=middle;resizable=0;points=[];autosize=1;strokeColor=none;" vertex="1" parent="WIyWlLk6GJQsqaUBKTNV-1">
          <mxGeometry x="590" y="345" width="20" height="20" as="geometry" />
        </mxCell>
        <mxCell id="g8Wk1OXir1tEvoCu7UKD-12" value="1" style="text;html=1;align=center;verticalAlign=middle;resizable=0;points=[];autosize=1;strokeColor=none;" vertex="1" parent="WIyWlLk6GJQsqaUBKTNV-1">
          <mxGeometry x="230" y="394" width="20" height="20" as="geometry" />
        </mxCell>
      </root>
    </mxGraphModel>
  </diagram>
</mxfile>
